{
  "asset": {
    "version": "2.0",
    "generator": "Sketchup glTF Exporter v1.2.6 by Centaur"
  },
  "scene": 0,
  "scenes": [
    {
      "nodes": [
        0
      ]
    }
  ],
  "samplers": [
    {
    }
  ],
  "nodes": [
    {
      "name": "root",
      "children": [
        1
      ]
    },
    {
      "children": [
        2,
        3,
        4,
        5,
        6,
        7,
        8,
        9
      ]
    },
    {
      "name": "TEST",
      "mesh": 0
    },
    {
      "mesh": 1
    },
    {
      "name": "BUILD",
      "mesh": 2
    },
    {
      "name": "RELEASE",
      "mesh": 3
    },
    {
      "name": "S2812-PF",
      "mesh": 4
    },
    {
      "mesh": 5
    },
    {
      "name": "S2812-PF",
      "mesh": 6
    },
    {
      "mesh": 7
    }
  ],
  "materials": [
    {
      "pbrMetallicRoughness": {
        "baseColorFactor": [
          0.2176,
          0.2176,
          0.2176,
          1.0
        ],
        "metallicFactor": 0.1,
        "roughnessFactor": 0.9
      },
      "name": "default material",
      "doubleSided": true
    }
  ],
  "meshes": [
    {
      "primitives": [
        {
          "attributes": {
            "POSITION": 0,
            "NORMAL": 1
          },
          "indices": 2,
          "mode": 4,
          "material": 0
        }
      ]
    },
    {
      "primitives": [
        {
          "attributes": {
            "POSITION": 0,
            "NORMAL": 1
          },
          "indices": 3,
          "mode": 4,
          "material": 0
        }
      ]
    },
    {
      "primitives": [
        {
          "attributes": {
            "POSITION": 0,
            "NORMAL": 1
          },
          "indices": 4,
          "mode": 4,
          "material": 0
        }
      ]
    },
    {
      "primitives": [
        {
          "attributes": {
            "POSITION": 0,
            "NORMAL": 1
          },
          "indices": 5,
          "mode": 4,
          "material": 0
        }
      ]
    },
    {
      "primitives": [
        {
          "attributes": {
            "POSITION": 0,
            "NORMAL": 1
          },
          "indices": 6,
          "mode": 4,
          "material": 0
        }
      ]
    },
    {
      "primitives": [
        {
          "attributes": {
            "POSITION": 0,
            "NORMAL": 1
          },
          "indices": 7,
          "mode": 4,
          "material": 0
        }
      ]
    },
    {
      "primitives": [
        {
          "attributes": {
            "POSITION": 0,
            "NORMAL": 1
          },
          "indices": 8,
          "mode": 4,
          "material": 0
        }
      ]
    },
    {
      "primitives": [
        {
          "attributes": {
            "POSITION": 0,
            "NORMAL": 1
          },
          "indices": 9,
          "mode": 4,
          "material": 0
        }
      ]
    }
  ],
  "accessors": [
    {
      "bufferView": 0,
      "componentType": 5126,
      "count": 2412,
      "type": "VEC3",
      "min": [
        -1.6702615346397955,
        0.6662251978043248,
        -0.08000000000000047
      ],
      "max": [
        1.9211374112558617,
        1.3162084671763365,
        0.03000000000000133
      ]
    },
    {
      "bufferView": 1,
      "componentType": 5126,
      "count": 2412,
      "type": "VEC3",
      "min": [
        -1.0,
        -1.0,
        -1.0
      ],
      "max": [
        1.0,
        1.0,
        1.0
      ]
    },
    {
      "bufferView": 2,
      "componentType": 5123,
      "count": 1092,
      "type": "SCALAR"
    },
    {
      "bufferView": 2,
      "componentType": 5123,
      "count": 60,
      "type": "SCALAR",
      "byteOffset": 2184
    },
    {
      "bufferView": 2,
      "componentType": 5123,
      "count": 1764,
      "type": "SCALAR",
      "byteOffset": 2304
    },
    {
      "bufferView": 2,
      "componentType": 5123,
      "count": 1800,
      "type": "SCALAR",
      "byteOffset": 5832
    },
    {
      "bufferView": 2,
      "componentType": 5123,
      "count": 648,
      "type": "SCALAR",
      "byteOffset": 9432
    },
    {
      "bufferView": 2,
      "componentType": 5123,
      "count": 60,
      "type": "SCALAR",
      "byteOffset": 10728
    },
    {
      "bufferView": 2,
      "componentType": 5123,
      "count": 648,
      "type": "SCALAR",
      "byteOffset": 10848
    },
    {
      "bufferView": 2,
      "componentType": 5123,
      "count": 60,
      "type": "SCALAR",
      "byteOffset": 12144
    }
  ],
  "bufferViews": [
    {
      "buffer": 0,
      "byteLength": 28944,
      "target": 34962,
      "byteStride": 12
    },
    {
      "buffer": 0,
      "byteOffset": 28944,
      "byteLength": 28944,
      "target": 34962,
      "byteStride": 12
    },
    {
      "buffer": 0,
      "byteOffset": 57888,
      "byteLength": 12264,
      "target": 34963
    }
  ],
  "buffers": [
    {
      "uri": "data:application/octet-stream;base64,",
      "byteLength": 70152
    }
  ]
}